<svg id="Layer_1" data-name="Layer 1" xmlns="http://www.w3.org/2000/svg" viewBox="0 0 453.24 122"><defs><style>.cls-1{fill:#cc6f47;}.cls-2{fill:#e27752;}.cls-3{fill:#ba6142;}</style></defs><polygon class="cls-1" points="0 61 52.4 61 52.4 0 0 61"/><polygon class="cls-2" points="104.79 61 52.4 61 52.4 0 104.79 61"/><polygon class="cls-1" points="104.79 61 52.4 61 52.4 122 104.79 61"/><polygon class="cls-3" points="0 61 52.4 61 52.4 122 0 61"/><path class="cls-1" d="M135.65,80.28h-6.24l-.43,0-.58-.1-1.67-.29a8.38,8.38,0,0,1-1.78-.53,18.11,18.11,0,0,1-9.17-7.24,17,17,0,0,1-2.09-4.71,18.76,18.76,0,0,1-.64-4.8c0-.32,0-.89.09-1.7a16.74,16.74,0,0,1,.34-2.33,18.52,18.52,0,0,1,1-2.93,18,18,0,0,1,1.75-3.09,19.9,19.9,0,0,1,2.45-2.88,15.51,15.51,0,0,1,3.12-2.38,14.91,14.91,0,0,1,4.7-1.87,2.1,2.1,0,0,0,.46-.1l.82-.21a9.21,9.21,0,0,1,.91-.2,6.17,6.17,0,0,1,.74-.07h6.19V52H129.8a3.77,3.77,0,0,0-.58.12c-.32.08-.57.14-.77.17a5.63,5.63,0,0,0-1.89.6,12.45,12.45,0,0,0-2,1.27,12.6,12.6,0,0,0-1.85,1.73,7.56,7.56,0,0,0-1.27,2c-.07.16-.16.34-.27.55a3.76,3.76,0,0,0-.26.6,9,9,0,0,0-.48,1.85,11.89,11.89,0,0,0-.1,1.65,11.5,11.5,0,0,0,.34,2.72,9.72,9.72,0,0,0,1.1,2.71,10.68,10.68,0,0,0,2,2.42,10.41,10.41,0,0,0,3,1.9,5.89,5.89,0,0,0,.62.24c.29.09.58.18.89.26l.89.22a3.52,3.52,0,0,0,.72.09h5.8Z"/><path class="cls-1" d="M164.5,80.33h-7.87l-6.1-13.58h-3.79V80.28h-7.25V44.81H152.4a6.31,6.31,0,0,1,.75.07c.3,0,.62.12,1,.2l.94.24.67.21a18,18,0,0,1,2.13,1.11,9.24,9.24,0,0,1,2,1.72,10.67,10.67,0,0,1,1.8,2.6,10.41,10.41,0,0,1,.89,2.64,10.29,10.29,0,0,1,.24,2.2,11.76,11.76,0,0,1-1.13,4.85,10.75,10.75,0,0,1-4,4.42ZM155.62,55.8a4.42,4.42,0,0,0-.5-2,3.52,3.52,0,0,0-1.85-1.59,4.1,4.1,0,0,0-.6-.17c-.24,0-.39-.07-.46-.07h-5.47V59.6h5.47a3,3,0,0,0,.46-.1,5.43,5.43,0,0,0,.6-.19,3.33,3.33,0,0,0,1.85-1.54A4.46,4.46,0,0,0,155.62,55.8Z"/><path class="cls-1" d="M202.42,44.86,189,67.47V80.28h-7.25V67.52L168.34,44.86h8.4l8.59,14.45L194,44.86Z"/><path class="cls-1" d="M230.64,56.86a12.05,12.05,0,0,1-.67,4.06,11.7,11.7,0,0,1-1.87,3.4,12.1,12.1,0,0,1-2.78,2.57,11.26,11.26,0,0,1-3.41,1.54l-1.25.29a6.71,6.71,0,0,1-1.39.19h-5.76V80.28h-7.25V44.81h12.91a7,7,0,0,1,.82.07c.32,0,.65.12,1,.2l.94.24.62.16a16.78,16.78,0,0,1,2.59,1.25,11.11,11.11,0,0,1,2.45,2.11,9.32,9.32,0,0,1,1.56,2.24,18.34,18.34,0,0,1,1,2.37,12,12,0,0,1,.36,1.68A12.58,12.58,0,0,1,230.64,56.86Zm-7.15,0a4.94,4.94,0,0,0-.21-1.39,4.74,4.74,0,0,0-.68-1.37A5.08,5.08,0,0,0,221.48,53a4.5,4.5,0,0,0-1.59-.75,3.7,3.7,0,0,0-.65-.14l-.4-.05h-5.33v9.75h5.33l.48-.08a4.48,4.48,0,0,0,.57-.12,4.31,4.31,0,0,0,2.71-1.92A5.22,5.22,0,0,0,223.49,56.86Z"/><path class="cls-1" d="M264.77,52H253.3V80.28h-7.25V52.06H234.48v-7.2h30.29Z"/><path class="cls-1" d="M302.64,62.62a17.17,17.17,0,0,1-1.39,6.91,17.55,17.55,0,0,1-3.79,5.59,18,18,0,0,1-5.62,3.77,17.87,17.87,0,0,1-13.82,0,18.35,18.35,0,0,1-5.64-3.79,17.66,17.66,0,0,1-3.82-5.62,17.82,17.82,0,0,1,0-13.8A18,18,0,0,1,278,46.2a17.34,17.34,0,0,1,6.91-1.39,17,17,0,0,1,7,1.42,17.84,17.84,0,0,1,9.39,9.5A17.57,17.57,0,0,1,302.64,62.62Zm-7.2,0a11.3,11.3,0,0,0-.38-2.88,9.64,9.64,0,0,0-1.25-2.83,10.64,10.64,0,0,0-2.21-2.47,10.81,10.81,0,0,0-3.26-1.85,4.19,4.19,0,0,0-.91-.22,7.48,7.48,0,0,1-.91-.17,8.21,8.21,0,0,0-1-.14l-.67-.05a10,10,0,0,0-2.31.29,10.71,10.71,0,0,0-2.4.91,11.42,11.42,0,0,0-2.28,1.59A9.77,9.77,0,0,0,276,57.1a9.54,9.54,0,0,0-1.3,3.31c-.06.35-.12.71-.17,1.06a8.16,8.16,0,0,0-.07,1.15,10,10,0,0,0,.82,4A10.53,10.53,0,0,0,277.49,70a10.86,10.86,0,0,0,3.36,2.28,10.07,10.07,0,0,0,4.08.84,10.25,10.25,0,0,0,4-.81A10.89,10.89,0,0,0,292.32,70a10.68,10.68,0,0,0,2.28-3.32A10,10,0,0,0,295.44,62.62Z"/><path class="cls-1" d="M353,62.67a17.37,17.37,0,0,1-.74,4.94A17.87,17.87,0,0,1,350,72.46a18.31,18.31,0,0,1-3.91,4.18,18,18,0,0,1-5.69,2.92l-.74.17L338.6,80l-1.16.22a6.08,6.08,0,0,1-.86.09h-13.3V44.81h13.3a6.16,6.16,0,0,1,1.2.17l1.54.36,1.39.38.81.24A16.64,16.64,0,0,1,343.9,47a19,19,0,0,1,2.5,1.66,18.1,18.1,0,0,1,2.3,2.18,14.64,14.64,0,0,1,1.85,2.62l.41.72c.14.26.27.53.4.82a24.9,24.9,0,0,1,1.28,3.79A16.84,16.84,0,0,1,353,62.67Zm-7.24-.29a9.86,9.86,0,0,0-.41-2.71,10.64,10.64,0,0,0-1.25-2.76A10.6,10.6,0,0,0,339,52.68c-.13,0-.31-.08-.55-.16a7.47,7.47,0,0,0-.79-.22l-.84-.19a2.92,2.92,0,0,0-.7-.1h-5.57V73.08h5.67a4.53,4.53,0,0,0,1.05-.14c.42-.1.72-.18.91-.24a10.61,10.61,0,0,0,3.6-1.75,10.32,10.32,0,0,0,2.36-2.55,10,10,0,0,0,1.29-3A12.42,12.42,0,0,0,345.8,62.38Z"/><path class="cls-1" d="M389.28,80.33h-8l-2.6-5.47H366.48l-2.59,5.47h-8l16.71-35.52Zm-14-12.72-2.69-5.76-2.74,5.76Z"/><path class="cls-1" d="M416.59,52.06l-6.14,3.07a5,5,0,0,0-1.1-1.53,7.1,7.1,0,0,0-1.44-1,6,6,0,0,0-1.59-.57,7.56,7.56,0,0,0-1.49-.17,9.17,9.17,0,0,0-1.46.12,3.87,3.87,0,0,0-1.34.46,2.66,2.66,0,0,0-1,1,3.26,3.26,0,0,0-.38,1.66,3.41,3.41,0,0,0,.48,1.6,3.66,3.66,0,0,0,1.58,1.47l.39.21a2.88,2.88,0,0,0,.38.22l2,1.06c.67.35,1.34.68,2,1,.16.1.36.2.6.32a5.43,5.43,0,0,1,.6.31l1,.45c.35.18.66.35.91.51A10.65,10.65,0,0,1,413,64.06a7.88,7.88,0,0,1,1.49,2.14,9.34,9.34,0,0,1,.74,2.3,12.33,12.33,0,0,1,.22,2.33,10.1,10.1,0,0,1-.34,2.66,7.46,7.46,0,0,1-1.1,2.38,9.23,9.23,0,0,1-2,2.06,13,13,0,0,1-3.14,1.68c-.29.1-.63.19-1,.29a9.41,9.41,0,0,1-1.2.22l-1.27.12c-.44,0-.81,0-1.13,0s-.7,0-.94,0l-.72-.05a4.14,4.14,0,0,1-.6-.07,14.87,14.87,0,0,1-2.37-.53,12,12,0,0,1-2.52-1.08,12.12,12.12,0,0,1-2.38-1.73,9.78,9.78,0,0,1-1.94-2.47c-.1-.16-.2-.34-.32-.55l-.31-.6,6-3h.15a4.8,4.8,0,0,0,1.1,1.53,6.26,6.26,0,0,0,1.44,1,6.18,6.18,0,0,0,1.56.55,7.28,7.28,0,0,0,1.46.17,9.54,9.54,0,0,0,1.52-.12,3.94,3.94,0,0,0,1.34-.46,2.58,2.58,0,0,0,1-1,3,3,0,0,0,.39-1.63c0-1.37-1-2.54-2.83-3.5a5.33,5.33,0,0,1-.63-.31l-1.05-.58-1.23-.65-1.13-.57-.52-.27a5,5,0,0,0-.63-.26l-.93-.51-1-.5a9.54,9.54,0,0,1-2.45-1.85,8.85,8.85,0,0,1-2.28-4.46,13.28,13.28,0,0,1-.21-2.33c0-.06,0-.34,0-.82a11.63,11.63,0,0,1,.14-1.24c0-.1.06-.24.1-.41a2.73,2.73,0,0,1,.14-.51c.06-.16.15-.36.26-.62s.24-.5.36-.72a6.67,6.67,0,0,1,1.11-1.51,11.48,11.48,0,0,1,1.44-1.27,12.16,12.16,0,0,1,1.56-1,9.23,9.23,0,0,1,1.51-.67,12.46,12.46,0,0,1,2.3-.56A16.94,16.94,0,0,1,404.5,45l.89.07.74,0,.62,0a15,15,0,0,1,2.38.53,11.55,11.55,0,0,1,2.52,1.1A14.39,14.39,0,0,1,414,48.48,10.33,10.33,0,0,1,416,50.91a3.84,3.84,0,0,0,.29.57Z"/><path class="cls-1" d="M451.15,80.28H444V65.74H427.68V80.28h-7.25V44.86h7.25V58.54h16.23V44.86h7.24Z"/></svg>