<svg id="Layer_1" data-name="Layer 1" xmlns="http://www.w3.org/2000/svg" viewBox="0 0 338 69"><defs><style>.cls-1{fill:none;}.cls-2{fill:#cc6f47;}</style></defs><path class="cls-1" d="M210.78,45h10.36a10.34,10.34,0,0,0,6.05-2H210.78Z"/><path class="cls-1" d="M221.14,24.27H210.78V25h14.15A10.19,10.19,0,0,0,221.14,24.27Z"/><path class="cls-2" d="M221.14,18.52A16.09,16.09,0,0,1,229.71,21H245.3a28.51,28.51,0,0,0-50.21,0h10V18.47Z"/><path class="cls-2" d="M187.32,25A28.57,28.57,0,0,0,187,43h18.1V25Z"/><path class="cls-2" d="M234.84,43h6.56a28.66,28.66,0,0,0-.33-18h-7a16,16,0,0,1,.8,18Z"/><path class="cls-2" d="M231.49,34.62A10.38,10.38,0,0,0,224.93,25H210.78V43h16.41A10.33,10.33,0,0,0,231.49,34.62Z"/><path class="cls-2" d="M231.34,47a15.76,15.76,0,0,1-10.16,3.68h-16.1V47h-10.5a28.5,28.5,0,0,0,51.23,0Z"/><path class="cls-2" d="M11.3,33.49A8.55,8.55,0,0,0,19.84,42h13.3v4.75H19.84a13.3,13.3,0,0,1,0-26.59h13.3v4.75H19.84A8.55,8.55,0,0,0,11.3,33.49Z"/><path class="cls-2" d="M58.41,42.11l2.43,4.75H55.53l-2.44-4.75-2.54-5-.12-.22a4.68,4.68,0,0,0-4-2.28H41.66V46.86H36.91V20.26H53.7a7.14,7.14,0,0,1,7.14,7.15,7.21,7.21,0,0,1-4.17,6.53,6.07,6.07,0,0,1-2.06.57ZM53.7,29.88a2.25,2.25,0,0,0,1-.23,2.42,2.42,0,0,0,1.44-2.21,2.46,2.46,0,0,0-.72-1.74A2.35,2.35,0,0,0,53.7,25h-12v4.9Z"/><path class="cls-2" d="M63,46.78h.07l-.07.08ZM89.57,20.15,79.28,33.49l-.57.72V46.75H74V34.28l-.65-.79L63,20.15h6l7.29,9.46,7.3-9.46Zm0,26.63h0v.08Z"/><path class="cls-2" d="M115.3,22.32a7.21,7.21,0,0,1-2.09,11.62,6.08,6.08,0,0,1-2,.57h-.23v0H98.2V46.78H93.45V20.19h16.76a7.13,7.13,0,0,1,5.05,2.09Zm-4.07,7.25a2.4,2.4,0,0,0,1.45-2.2,2.53,2.53,0,0,0-.72-1.75,2.43,2.43,0,0,0-1.71-.68h-12v4.9h12a2.21,2.21,0,0,0,1-.23Z"/><path class="cls-2" d="M147.71,20.23V25h-10.9V46.82h-4.75V25H121.15V20.23Z"/><path class="cls-2" d="M174.73,33.49a13.3,13.3,0,1,1-13.3-13.3A13.31,13.31,0,0,1,174.73,33.49Zm-4.75,0A8.55,8.55,0,1,0,161.43,42,8.56,8.56,0,0,0,170,33.49Z"/><path class="cls-2" d="M276.62,46.41H271.3l-2.43-4.75-5.82-11.4-5.81,11.4-2.43,4.75h-5.32l2.43-4.75,11.13-21.85,11.13,21.85Z"/><path class="cls-2" d="M297.21,27.18V27a2.45,2.45,0,0,0-2.43-2.43H284A2.45,2.45,0,0,0,281.56,27v.15A2.45,2.45,0,0,0,284,29.61h9.58a8.35,8.35,0,0,1,6.19,2.74c.11.11.19.23.3.34a8.4,8.4,0,0,1-6.49,13.72h-8.33a8.4,8.4,0,0,1-8.39-8.4h4.75a3.65,3.65,0,0,0,3.64,3.65h8.33a3.65,3.65,0,1,0,0-7.3H284a7.13,7.13,0,0,1-5-2,6.8,6.8,0,0,1-.91-1.14,7.06,7.06,0,0,1-1.25-4.07V27A7.17,7.17,0,0,1,284,19.81h10.79A7.2,7.2,0,0,1,302,27v.15Z"/><path class="cls-2" d="M332.36,19.81v26.6h-4.75V34.21h-17.1v12.2h-4.74V19.81h4.74v9.65h17.1V19.81Z"/></svg>