<svg id="Layer_1" data-name="Layer 1" xmlns="http://www.w3.org/2000/svg" viewBox="0 0 95 88"><defs><style>.cls-1{fill:none;}.cls-2{fill:#cc6f47;}</style></defs><path class="cls-1" d="M40.36,52.28H50.71a10.25,10.25,0,0,0,6-2H40.36Z"/><path class="cls-1" d="M50.71,31.58H40.36v.73H54.5A10.15,10.15,0,0,0,50.71,31.58Z"/><path class="cls-2" d="M50.71,25.83a16.09,16.09,0,0,1,8.57,2.48H74.87a28.51,28.51,0,0,0-50.21,0h10V25.78Z"/><path class="cls-2" d="M16.89,32.31a28.66,28.66,0,0,0-.33,18H34.65v-18Z"/><path class="cls-2" d="M64.41,50.31H71a28.57,28.57,0,0,0-.34-18h-7a16,16,0,0,1,.8,18Z"/><path class="cls-2" d="M61.06,41.93a10.36,10.36,0,0,0-6.56-9.62H40.36v18h16.4A10.33,10.33,0,0,0,61.06,41.93Z"/><path class="cls-2" d="M60.92,54.31A15.81,15.81,0,0,1,50.75,58H34.65V54.31H24.15a28.5,28.5,0,0,0,51.23,0Z"/></svg>